HIERARCHY
ROOT Hips
{
    OFFSET 0.000000 0.000000 0.000000
    CHANNELS 6 Xposition Yposition Zposition Zrotation Xrotation Yrotation
    JOINT Spine
    {
        OFFSET -0.000000 7.246840 0.000000
        CHANNELS 3 Zrotation Xrotation Yrotation
        JOINT Spine1
        {
            OFFSET -0.000000 20.289354 0.000000
            CHANNELS 3 Zrotation Xrotation Yrotation
            JOINT Neck
            {
                OFFSET -0.000000 20.206032 1.836912
                CHANNELS 3 Zrotation Xrotation Yrotation
                JOINT Head
                {
                    OFFSET -0.000000 12.372654 -1.767522
                    CHANNELS 3 Zrotation Xrotation Yrotation
                    End Site
                    {
                        OFFSET -0.000000 22.094025 0.000000
                    }
                }
            }
            JOINT LeftShoulder
            {
                OFFSET 3.465871 17.201674 -0.568930
                CHANNELS 3 Zrotation Xrotation Yrotation
                JOINT LeftArm
                {
                    OFFSET 14.070313 0.000000 0.000000
                    CHANNELS 3 Zrotation Xrotation Yrotation
                    JOINT LeftForeArm
                    {
                        OFFSET 26.549477 0.000000 0.000000
                        CHANNELS 3 Zrotation Xrotation Yrotation
                        JOINT LeftHand
                        {
                            OFFSET 18.880413 0.000000 0.000000
                            CHANNELS 3 Zrotation Xrotation Yrotation
                            End Site
                            {
                                OFFSET 13.256415 0.000000 0.000000
                            }
                        }
                    }
                }
            }
            JOINT RightShoulder
            {
                OFFSET -3.526370 17.201674 -0.568930
                CHANNELS 3 Zrotation Xrotation Yrotation
                JOINT RightArm
                {
                    OFFSET -14.070313 0.000000 0.000000
                    CHANNELS 3 Zrotation Xrotation Yrotation
                    JOINT RightForeArm
                    {
                        OFFSET -26.549477 0.000000 0.000000
                        CHANNELS 3 Zrotation Xrotation Yrotation
                        JOINT RightHand
                        {
                            OFFSET -18.880413 0.000000 0.000000
                            CHANNELS 3 Zrotation Xrotation Yrotation
                            End Site
                            {
                                OFFSET -13.256415 0.000000 0.000000
                            }
                        }
                    }
                }
            }
        }
    }
    JOINT LeftUpLeg
    {
        OFFSET 8.837609 0.000000 0.000000
        CHANNELS 3 Zrotation Xrotation Yrotation
        JOINT LeftLeg
        {
            OFFSET -0.000000 -41.345005 0.000000
            CHANNELS 3 Zrotation Xrotation Yrotation
            JOINT LeftFoot
            {
                OFFSET -0.000000 -35.500874 0.000000
                CHANNELS 3 Zrotation Xrotation Yrotation
                JOINT LeftToeBase
                {
                    OFFSET -0.000000 -5.744446 13.256415
                    CHANNELS 3 Zrotation Xrotation Yrotation
                    End Site
                    {
                        OFFSET -0.000000 0.000000 3.535044
                    }
                }
            }
        }
    }
    JOINT RightUpLeg
    {
        OFFSET -8.837609 0.000000 0.000000
        CHANNELS 3 Zrotation Xrotation Yrotation
        JOINT RightLeg
        {
            OFFSET -0.000000 -41.345005 0.000000
            CHANNELS 3 Zrotation Xrotation Yrotation
            JOINT RightFoot
            {
                OFFSET -0.000000 -35.500874 0.000000
                CHANNELS 3 Zrotation Xrotation Yrotation
                JOINT RightToeBase
                {
                    OFFSET -0.000000 -5.744446 13.256415
                    CHANNELS 3 Zrotation Xrotation Yrotation
                    End Site
                    {
                        OFFSET -0.000000 0.000000 3.535044
                    }
                }
            }
        }
    }
}
MOTION
Frames:    11
Frame Time:    0.010000
-6.398322    82.965714    119.143440    4.725964    0.634732    9.164002    -5.928605    -7.172441    -1.133699    0.762393    16.503946    -0.872338    -4.470586    27.290382    6.886870    -7.915661    -14.292626    4.599293    9.001937    -1.932530    7.577108    -53.185867    40.437950    -26.804804    7.462911    -24.372740    -62.957005    -35.868420    -14.616273    -17.722490    -6.509715    6.175631    11.868143    73.641556    44.222153    2.712615    -10.211603    -35.248215    85.098465    46.825790    -19.061165    20.222990    0.923146    1.813767    -7.545462    0.040328    3.107779    -6.103542    2.708960    -4.168008    -10.493617    -0.820335    -2.531876    1.166349    -5.280384    1.477464    -5.641682    4.413313    2.900698    1.141397    -3.554386    -4.095446    -8.849430    0.662691    1.306790    -1.171981    
-5.958887    82.185707    118.377853    7.682707    5.746259    8.271067    -8.914408    -10.986750    -1.341939    0.025852    15.760252    -0.486476    -4.422922    27.233912    7.025305    -8.259904    -13.990094    4.681506    8.971683    -2.075263    7.753137    -54.361607    38.946686    -26.130703    7.954435    -24.677748    -63.490719    -35.522831    -14.698621    -17.587713    -6.518136    6.097328    11.807299    73.734306    44.535614    2.841667    -10.244143    -35.337166    84.992661    47.083595    -19.025137    20.398823    -3.424523    -3.687336    -7.523358    0.583097    4.236431    -5.671400    2.745179    -4.244439    -10.374914    -0.879301    -2.565485    1.250446    -10.133968    -4.556708    -6.360239    5.614359    4.991568    2.375628    -3.792095    -4.602806    -9.490267    0.662691    1.306790    -1.171981    
-6.014510    82.148743    118.521248    7.791101    5.678891    7.952406    -8.851580    -11.064541    -1.226396    -0.069333    15.905005    -0.357696    -4.569907    27.125805    7.145314    -8.229795    -13.576021    4.832394    9.003893    -2.153299    7.857512    -55.604275    37.663658    -25.395670    8.435717    -25.088369    -64.094757    -34.690144    -14.932919    -17.558407    -6.498466    6.142802    11.814578    73.639709    44.734097    3.111479    -10.122581    -35.261902    84.909813    47.361946    -19.016628    20.362217    -3.461174    -3.571231    -7.568955    0.566891    4.410621    -5.483714    2.822800    -4.366695    -10.204022    -0.884792    -2.638366    1.258831    -10.172786    -4.628987    -6.459246    5.566818    5.385445    2.518381    -3.652120    -4.867726    -9.259767    0.662691    1.306790    -1.171981    
-6.066362    82.117195    118.671539    7.894996    5.578462    7.622683    -8.775195    -11.069662    -1.126140    -0.163179    15.942019    -0.251277    -4.565854    27.263525    7.264286    -8.539585    -13.449270    4.879747    9.030205    -2.112096    8.009283    -56.830418    36.348045    -24.739159    8.765623    -25.200670    -64.802551    -33.249424    -15.061301    -17.397820    -6.476709    6.133981    11.853334    73.649208    44.980415    3.302524    -10.168366    -35.212860    84.742416    47.642994    -18.944935    20.231579    -3.485123    -3.459811    -7.522874    0.526990    4.653455    -5.310218    2.863758    -4.492032    -10.081043    -0.845867    -2.838040    1.204968    -10.220082    -4.646355    -6.644860    5.549462    5.731919    2.789656    -3.670396    -5.106836    -9.054736    0.017998    2.254861    -0.031521    
-6.111916    82.088745    118.821655    8.014765    5.465228    7.268762    -8.717102    -11.048208    -0.998579    -0.215324    15.950581    -0.123547    -4.852051    27.186375    7.332255    -8.281137    -13.175731    5.008994    9.006154    -2.112880    8.140882    -57.766075    35.402996    -24.181692    9.199999    -25.390671    -65.500633    -31.919653    -15.145895    -17.351669    -6.477831    6.143926    11.854500    73.605171    45.362259    3.506506    -10.436345    -35.241264    84.486237    48.110504    -18.789061    20.002712    -3.573830    -3.363605    -7.328791    0.583380    4.955468    -5.070599    2.898412    -4.654115    -10.182091    -0.891519    -2.957783    1.270959    -10.277939    -4.654912    -6.675218    5.535008    6.051987    2.839030    -2.371329    -5.135707    -8.877450    0.245604    0.532363    -0.437938    
-6.158851    82.062813    118.965912    8.144309    5.354952    6.886110    -8.693211    -11.019282    -0.882136    -0.224054    15.936515    -0.011859    -4.959937    27.264938    7.412662    -8.406351    -13.115689    5.049737    9.015275    -2.074841    8.240400    -58.749401    34.509403    -23.552982    9.229068    -25.640579    -66.302696    -30.429031    -15.457843    -17.667503    -6.498949    6.152479    11.909471    73.578445    45.662205    3.707438    -10.694389    -35.273663    84.252083    48.695015    -18.608057    19.807379    -3.647114    -3.327625    -7.091767    0.716681    5.582357    -5.089617    2.929713    -4.492827    -9.514389    -0.572943    -3.154378    0.817823    -10.337176    -4.696251    -6.762581    5.491099    6.430612    3.149638    -2.325377    -5.415059    -8.858973    0.142777    0.583143    -0.254450    
-6.194834    82.039276    119.102692    8.275500    5.257411    6.539010    -8.635422    -10.989990    -0.789210    -0.292475    15.931236    0.085096    -4.774500    27.438768    7.452944    -9.018333    -13.244290    4.938067    9.042052    -1.982093    8.378110    -59.530262    33.851601    -23.054262    9.296041    -25.865740    -67.097145    -28.910809    -15.760779    -17.861954    -6.481950    6.118091    12.011719    73.606560    45.887489    3.811972    -10.931170    -35.291374    84.133492    49.202763    -18.500368    19.450745    -3.775830    -3.383330    -6.837325    0.761328    6.143134    -4.945222    2.973506    -4.698144    -9.588139    -0.587986    -3.358056    0.840384    -10.407803    -4.715761    -6.739186    5.471109    6.718161    3.432978    -2.268132    -5.507504    -8.878782    0.098704    0.490443    -0.176079    
-6.904553    82.743797    120.043457    5.403332    0.205362    6.355079    -5.917109    -7.109866    -0.193800    0.619266    16.645002    0.083889    -5.065832    27.347237    7.569537    -8.776621    -13.177096    5.099046    9.064012    -1.874394    8.471403    -60.294003    33.062172    -22.538900    8.897357    -26.035952    -68.106255    -27.653847    -16.222610    -18.147425    -6.464332    6.068810    12.109215    73.658989    46.217327    3.888295    -11.314208    -35.425941    83.988945    49.728756    -18.421076    19.060982    0.477051    1.993416    -6.054836    0.129105    5.885976    -5.412938    2.970466    -5.398558    -9.844515    -0.308486    -4.536125    0.444274    -5.543084    0.928042    -5.299279    4.067484    5.258460    2.097338    -2.044915    -5.244252    -7.894171    0.038671    0.667109    -0.068857    
-6.915718    82.726860    120.233521    5.491855    0.103044    6.234416    -5.769307    -7.203924    -0.228243    0.487384    16.814558    0.063578    -4.750525    27.724945    7.660003    -9.722472    -13.689020    4.926574    9.126493    -1.857910    8.503878    -61.003036    32.609722    -21.849531    8.635756    -26.389912    -69.018181    -26.677902    -16.708735    -18.681179    -6.417419    6.102571    12.195153    73.613670    46.486618    4.099358    -11.761147    -35.547066    83.837509    50.268272    -18.261026    18.700481    0.331495    1.879593    -5.889319    0.213121    6.639486    -5.489488    3.088600    -5.604682    -9.844520    -0.360033    -4.864413    0.519626    -5.591104    1.123615    -5.362352    4.052509    5.317780    2.269057    -2.147808    -5.309765    -7.926721    0.002775    0.685075    -0.004941    
-6.941378    82.720657    120.380188    5.547146    -0.038526    6.003670    -5.654077    -7.130302    -0.205539    0.451549    16.835674    0.080339    -5.081949    27.601887    7.809127    -9.344975    -13.674820    5.150023    9.213484    -1.823260    8.524931    -61.790768    32.238766    -21.120068    8.419596    -26.767899    -69.886986    -25.986643    -17.177429    -19.134695    -6.382741    6.047978    12.401587    73.776344    46.621628    4.008557    -12.209283    -35.616020    83.787247    50.836960    -18.076645    18.217499    0.146957    1.751855    -5.381861    0.519378    7.808806    -9.429353    3.529145    -5.920189    -6.170959    -0.380849    -5.225597    0.550980    -5.587420    1.282977    -5.267665    4.017795    5.400196    2.329942    -2.191477    -5.377578    -7.899680    -0.036499    0.753273    0.064928    
-6.961419    82.717010    120.518860    5.587633    -0.188823    5.798955    -5.544360    -7.028883    -0.216480    0.464471    16.841560    0.055600    -4.906137    27.984938    7.953654    -10.062393    -14.254540    5.066226    9.285043    -1.840597    8.460664    -62.667221    31.872845    -20.199306    8.086833    -27.099724    -70.819618    -25.200222    -17.693281    -19.597477    -6.363727    6.052988    12.604525    73.778908    46.798759    4.082479    -12.511326    -35.868965    83.797279    51.840996    -18.126276    17.780945    0.037988    1.516291    -5.131711    0.583076    8.797056    -9.537866    3.691707    -6.031713    -6.113832    -0.427115    -5.644408    0.619636    -5.585441    1.493366    -5.138002    4.017463    5.383319    2.271609    -2.271662    -5.383230    -7.810261    -0.086145    0.786238    0.153191    
